<?xml version="1.0" encoding="UTF-8"?>
<svg id="Capa_2" data-name="Capa 2" xmlns="http://www.w3.org/2000/svg" viewBox="0 0 251.37 253.21">
  <defs>
    <style>
      .cls-1 {
        fill: #fff;
      }
    </style>
  </defs>
  <g id="Capa_1-2" data-name="Capa 1">
    <path class="cls-1" d="M124.14,5.62c31.66,0,61.42,12.33,83.81,34.71,18.35,18.35,29.95,41.59,33.54,67.2,3.48,24.79-1.07,50.53-12.81,72.48l-1.05,1.96,.58,2.15,16.81,62.73-63.88-17.12-2.06-.55-1.91,.96c-16.34,8.18-34.69,12.5-53.07,12.5-31.64,0-61.39-12.32-83.76-34.69C-5.88,161.73-5.88,86.54,40.33,40.33,62.72,17.95,92.48,5.62,124.14,5.62m44.9,200.66c8.97,0,16.58-2.65,22.61-7.89,1.49-1.29,2.63-2.94,3.41-4.91,1.89-4.82,6.69-15.83,9.39-21.96,2.18-4.96,.31-10.8-4.36-13.57l-31.29-18.57c-1.66-.99-3.56-1.51-5.49-1.51-1.77,0-3.53,.44-5.09,1.28l-21.13,11.34-17.64-17.64-17.64-17.64,11.34-21.13c1.77-3.3,1.69-7.35-.23-10.58l-18.57-31.29c-1.93-3.25-5.47-5.27-9.25-5.27-1.49,0-2.95,.31-4.32,.91-6.13,2.69-17.14,7.5-21.96,9.39-1.97,.77-3.62,1.92-4.91,3.41-21.1,24.34,2.87,68.65,35.98,101.76,21.21,21.21,53.14,43.87,79.15,43.87M124.14,0c-31.77,0-63.54,12.12-87.78,36.36-48.48,48.48-48.48,127.08,0,175.56,24.23,24.23,55.98,36.34,87.73,36.34,19.07,0,38.13-4.36,55.58-13.09l66.88,17.92c.34,.09,.68,.13,1.01,.13,2.42,0,4.36-2.32,3.68-4.83l-17.61-65.72c25.13-46.97,17.91-106.69-21.71-146.31C187.68,12.12,155.91,0,124.14,0h0Zm44.9,200.66c-21.97,0-51.32-18.36-75.18-42.22-31.76-31.76-53.79-73.26-35.71-94.11,.73-.84,1.68-1.45,2.72-1.85,4.93-1.93,16.08-6.8,22.17-9.48,.67-.3,1.37-.43,2.06-.43,1.76,0,3.46,.92,4.41,2.52l18.57,31.29c.92,1.55,.96,3.46,.11,5.05l-11.51,21.45c-1.07,2-.71,4.46,.89,6.06l17.9,17.9,17.9,17.9c.99,.99,2.3,1.5,3.63,1.5,.83,0,1.66-.2,2.43-.61l21.45-11.51c.76-.41,1.6-.61,2.43-.61,.91,0,1.82,.24,2.62,.72l31.29,18.57c2.23,1.33,3.13,4.1,2.09,6.47-2.68,6.08-7.54,17.24-9.48,22.17-.41,1.04-1.01,1.99-1.85,2.72-5.19,4.49-11.66,6.51-18.94,6.51h0Z"/>
  </g>
</svg>